<svg width="434" height="366" viewBox="0 0 434 366" fill="none" xmlns="http://www.w3.org/2000/svg">
<rect width="434" height="366" fill="white"/>
<path d="M65.9659 67.5923C64.7647 69.9159 64.5941 71.1451 65.9659 73.0923C84.2226 100.849 95.2954 116.094 116.966 142.592C137.488 161.474 151.625 169.937 178.466 165.592C190.641 173.313 192.934 178.589 198.966 187.592L78.4659 307.092C76.3021 313.099 73.9798 316.142 78.4659 324.092L88.4659 334.092C94.6524 338.451 98.7124 337.837 106.466 334.092L214.466 204.592L319.966 334.092C324.948 337.973 330.951 341.114 335.966 337.092L350.966 324.092C354.134 320.154 352.611 316.259 348 309.5L227.966 184.592C238.743 171.912 244.982 164.072 251.966 165.592C278.327 172.811 298.564 162.784 314.966 150.092C375.957 85.1872 347.321 55.3093 328.966 42.0923C310.611 28.8754 248.319 65.9601 239.466 83.5923C230.612 101.225 222.007 126.617 232.466 147.592C230.849 154.663 225.231 160.632 214.466 171.592C205.383 163.961 200.68 159.052 193.966 147.592C201.979 123.23 195.897 109.83 178.466 86.0923C155.549 62.9301 141.806 50.7148 115.966 30.0923C113.703 27.1682 111.081 27.7793 107.966 29.0923C107.795 31.7115 107.265 34.3464 109.466 35.5923L163.966 90.0923C167.327 94.9479 167.706 96.6974 166.466 98.5923C164.095 99.6758 162.721 99.9749 159.966 98.5923L101.966 42.0923C100.349 40.1326 98.3548 38.5426 95.9659 41.0923C93.169 41.8688 93.4118 44.445 95.9659 48.5923L147.966 108.592C149.244 110.74 149.949 111.944 147.966 114.092C146.735 114.888 144.466 115.592 142.466 114.092C140.466 112.592 86.4659 55.0923 86.4659 55.0923C83.9414 53.3726 82.1177 53.5725 78.4659 55.0923C77.2912 58.4583 77.5573 60.1414 80.4659 62.5923L129.966 124.592C131.446 127.643 131.785 129.184 129.966 131.092C129.301 131.648 128.502 131.695 125.966 131.092C103.492 106.732 92.4636 92.5775 71.9659 67.5923C69.8259 65.9858 68.4825 66.1951 65.9659 67.5923Z" fill="black" stroke="#2C2C2C" stroke-width="2"/>
</svg>